<svg width="120" height="120" viewBox="0 0 120 120" fill="none" xmlns="http://www.w3.org/2000/svg">
<g id="lucide:house-plus">
<g id="Group">
<path id="Vector" d="M66.1 12.08C64.2896 10.686 62.0565 9.95402 59.7722 10.0059C57.4879 10.0577 55.2903 10.8903 53.545 12.365L18.545 42.36C17.434 43.2989 16.5412 44.469 15.9289 45.7885C15.3167 47.1081 14.9997 48.5453 15 50V95C15 97.6521 16.0536 100.196 17.9289 102.071C19.8043 103.946 22.3478 105 25 105H95C97.6522 105 100.196 103.946 102.071 102.071C103.946 100.196 105 97.6521 105 95V58.23" stroke="#F8FAFC" stroke-width="10" stroke-linecap="round" stroke-linejoin="round"/>
<path id="Vector_2" d="M75 105V65C75 63.6739 74.4732 62.4021 73.5355 61.4645C72.5979 60.5268 71.3261 60 70 60H50C48.6739 60 47.4021 60.5268 46.4645 61.4645C45.5268 62.4021 45 63.6739 45 65V105M75 30H105M90 15V45" stroke="#F8FAFC" stroke-width="10" stroke-linecap="round" stroke-linejoin="round"/>
</g>
</g>
</svg>
