<svg width="120" height="120" viewBox="0 0 120 120" fill="none" xmlns="http://www.w3.org/2000/svg">
<g id="material-symbols:add-notes-outline-rounded">
<path id="Vector" d="M87.5 92.5V102.5C87.5 103.167 87.75 103.75 88.25 104.25C88.75 104.75 89.3333 105 90 105C90.6667 105 91.25 104.75 91.75 104.25C92.25 103.75 92.5 103.167 92.5 102.5V92.5H102.5C103.167 92.5 103.75 92.25 104.25 91.75C104.75 91.25 105 90.6667 105 90C105 89.3333 104.75 88.75 104.25 88.25C103.75 87.75 103.167 87.5 102.5 87.5H92.5V77.5C92.5 76.8333 92.25 76.25 91.75 75.75C91.25 75.25 90.6667 75 90 75C89.3333 75 88.75 75.25 88.25 75.75C87.75 76.25 87.5 76.8333 87.5 77.5V87.5H77.5C76.8333 87.5 76.25 87.75 75.75 88.25C75.25 88.75 75 89.3333 75 90C75 90.6667 75.25 91.25 75.75 91.75C76.25 92.25 76.8333 92.5 77.5 92.5H87.5ZM25 105C22.25 105 19.8967 104.022 17.94 102.065C15.9833 100.108 15.0033 97.7533 15 95V25C15 22.25 15.98 19.8967 17.94 17.94C19.9 15.9833 22.2533 15.0033 25 15H95C97.75 15 100.105 15.98 102.065 17.94C104.025 19.9 105.003 22.2533 105 25V50C105 51.4167 104.52 52.605 103.56 53.565C102.6 54.525 101.413 55.0033 100 55C98.5867 54.9967 97.4 54.5167 96.44 53.56C95.48 52.6033 95 51.4167 95 50V25H25V95H50C51.4167 95 52.605 95.48 53.565 96.44C54.525 97.4 55.0033 98.5867 55 100C54.9967 101.413 54.5167 102.602 53.56 103.565C52.6033 104.528 51.4167 105.007 50 105H25ZM25 90V95V25V55.375V55V90ZM35 80C35 81.4167 35.48 82.605 36.44 83.565C37.4 84.525 38.5867 85.0033 40 85H50.375C51.7917 85 52.98 84.52 53.94 83.56C54.9 82.6 55.3783 81.4133 55.375 80C55.3717 78.5867 54.8933 77.4 53.94 76.44C52.9867 75.48 51.7983 75 50.375 75H40C38.5833 75 37.3967 75.48 36.44 76.44C35.4833 77.4 35.0033 78.5867 35 80ZM35 60C35 61.4167 35.48 62.605 36.44 63.565C37.4 64.525 38.5867 65.0033 40 65H65C66.4167 65 67.605 64.52 68.565 63.56C69.525 62.6 70.0033 61.4133 70 60C69.9967 58.5867 69.5167 57.4 68.56 56.44C67.6033 55.48 66.4167 55 65 55H40C38.5833 55 37.3967 55.48 36.44 56.44C35.4833 57.4 35.0033 58.5867 35 60ZM35 40C35 41.4167 35.48 42.605 36.44 43.565C37.4 44.525 38.5867 45.0033 40 45H80C81.4167 45 82.605 44.52 83.565 43.56C84.525 42.6 85.0033 41.4133 85 40C84.9967 38.5867 84.5167 37.4 83.56 36.44C82.6033 35.48 81.4167 35 80 35H40C38.5833 35 37.3967 35.48 36.44 36.44C35.4833 37.4 35.0033 38.5867 35 40ZM90 115C83.0833 115 77.1883 112.562 72.315 107.685C67.4417 102.808 65.0033 96.9133 65 90C64.9967 83.0867 67.435 77.1917 72.315 72.315C77.195 67.4383 83.09 65 90 65C96.91 65 102.807 67.4383 107.69 72.315C112.573 77.1917 115.01 83.0867 115 90C114.99 96.9133 112.552 102.81 107.685 107.69C102.818 112.57 96.9233 115.007 90 115Z" fill="#F8FAFC"/>
</g>
</svg>
