<svg width="120" height="120" viewBox="0 0 120 120" fill="none" xmlns="http://www.w3.org/2000/svg">
<g id="mdi:worker-outline">
<path id="Vector" d="M80 45C80 71.65 40 71.65 40 45H50C50 58.35 70 58.35 70 45M100 90V105H20V90C20 76.65 46.65 70 60 70C73.35 70 100 76.65 100 90ZM90.5 90C90.5 86.8 74.85 79.5 60 79.5C45.15 79.5 29.5 86.8 29.5 90V95.5H90.5M62.5 10C63.9 10 65 11.1 65 12.5V27.5H70V15C73.5385 16.6376 76.5032 19.301 78.5093 22.6444C80.5154 25.9879 81.4702 29.8571 81.25 33.75C81.25 33.75 84.75 34.45 85 40H35C35 34.45 38.75 33.75 38.75 33.75C38.5298 29.8571 39.4846 25.9879 41.4907 22.6444C43.4968 19.301 46.4615 16.6376 50 15V27.5H55V12.5C55 11.1 56.1 10 57.5 10" fill="#F8FAFC"/>
</g>
</svg>
