<svg width="239" height="44" viewBox="0 0 239 44" fill="none" xmlns="http://www.w3.org/2000/svg">
<g id="TWW.">
<path d="M52.9535 0C53.5057 0 53.9535 0.447715 53.9535 1V16.8347C53.9535 17.387 53.5057 17.8347 52.9535 17.8347H39.7879C39.7612 17.8347 39.7357 17.8452 39.7168 17.864C39.7117 17.8691 39.706 17.8748 39.6995 17.8812C39.6917 17.889 39.6933 17.8933 39.6823 17.8933C39.6592 17.8933 39.6284 17.912 39.6284 17.9351C39.6284 17.9402 39.6284 17.9459 39.6284 17.952C39.6284 19.6729 39.6284 21.4133 39.6284 23.1733C39.6284 24.8942 39.6284 26.6347 39.6284 28.3947C39.6284 30.1156 39.6284 31.856 39.6284 33.616C39.6284 35.3369 39.6284 37.0773 39.6284 38.8373C39.6284 40.2249 39.6284 41.6124 39.6284 43C39.6284 43.5523 39.1807 44 38.6284 44H16.1637C15.6114 44 15.1637 43.5523 15.1637 43C15.1637 40.4391 15.1637 37.8782 15.1637 35.3173C15.1637 32.4231 15.1637 29.5289 15.1637 26.6347C15.1637 23.7404 15.1637 20.8462 15.1637 17.952C15.1637 17.8993 15.0985 17.8347 15.0458 17.8347H1.83862C1.28634 17.8347 0.838623 17.387 0.838623 16.8347V1C0.838623 0.447716 1.28634 0 1.83862 0H52.9535Z" fill="#1C1917"/>
<path d="M112.057 0.855166C112.13 0.364097 112.551 0 113.047 0H134.795C135.44 0 135.917 0.601252 135.769 1.22893C135.001 4.49573 134.232 7.76253 133.464 11.0293C132.639 14.6667 131.794 18.3236 130.929 22C130.065 25.6764 129.2 29.3529 128.335 33.0293C127.568 36.409 126.802 39.8056 126.035 43.219C125.932 43.6756 125.527 44 125.059 44H99.2996C98.8084 44 98.39 43.6433 98.3122 43.1583L94.9112 21.9483C94.9105 21.9437 94.9102 21.939 94.9099 21.9343C94.9083 21.9103 94.8983 21.8947 94.8799 21.8874C94.8649 21.8815 94.8512 21.8549 94.8512 21.8387C94.8512 21.8225 94.8381 21.824 94.8218 21.824C94.8181 21.824 94.8139 21.824 94.8094 21.824C94.7984 21.824 94.7878 21.8284 94.78 21.8361C94.7755 21.8406 94.7698 21.8463 94.7629 21.8532C94.7439 21.8721 94.7333 21.8977 94.7333 21.9244C94.7333 21.9268 94.7333 21.9294 94.7333 21.932C94.7333 21.9382 94.7328 21.9444 94.7318 21.9505L91.3883 43.1558C91.3116 43.6419 90.8926 44 90.4005 44H66.4579C65.996 44 65.5941 43.6835 65.4858 43.2344C64.8399 40.5563 64.1941 37.8781 63.5482 35.2C62.8408 32.2667 62.1137 29.3333 61.367 26.4C60.6596 23.4667 59.9522 20.5333 59.2448 17.6C58.5374 14.6667 57.8103 11.7333 57.0636 8.8C56.4554 6.27815 55.8472 3.7563 55.2391 1.23444C55.0873 0.605343 55.564 0 56.2112 0H79.1997C79.6919 0 80.1111 0.358086 80.1862 0.844494C80.4516 2.56279 80.7024 4.29551 80.9387 6.04267C81.2531 8.03734 81.5479 10.032 81.823 12.0267C82.1374 14.0213 82.4518 16.0356 82.7662 18.0693C83.0776 20.0445 83.3696 22.0197 83.6424 23.9949C83.647 24.0284 83.6756 24.0533 83.7094 24.0533C83.7487 24.0533 83.788 24.0533 83.8273 24.0533C83.8666 24.0533 83.8863 24.0533 83.8863 24.0533C83.9201 24.0533 83.9487 24.0284 83.9532 23.9949L87.1279 0.864028C87.1959 0.368928 87.6189 0 88.1186 0H104.125C104.622 0 105.044 0.365002 105.115 0.856889L108.46 23.995C108.465 24.0285 108.528 24.0533 108.528 24.0533C108.562 24.0533 108.59 24.0285 108.595 23.995C109.182 19.9862 109.769 15.9967 110.355 12.0267C110.94 8.31972 111.507 4.59589 112.057 0.855166Z" fill="#1C1917"/>
<path d="M193.345 0.855166C193.417 0.364097 193.839 0 194.335 0H216.083C216.728 0 217.204 0.601252 217.057 1.22893C216.289 4.49573 215.52 7.76253 214.752 11.0293C213.927 14.6667 213.082 18.3236 212.217 22C211.352 25.6764 210.488 29.3529 209.623 33.0293C208.856 36.409 208.089 39.8056 207.323 43.219C207.22 43.6756 206.815 44 206.347 44H180.587C180.096 44 179.678 43.6433 179.6 43.1583L176.199 21.9483C176.198 21.9437 176.198 21.939 176.198 21.9343C176.196 21.9103 176.186 21.8947 176.168 21.8874C176.153 21.8815 176.139 21.8549 176.139 21.8387C176.139 21.8225 176.126 21.824 176.11 21.824C176.106 21.824 176.102 21.824 176.097 21.824C176.086 21.824 176.076 21.8284 176.068 21.8361C176.063 21.8406 176.058 21.8463 176.051 21.8532C176.032 21.8721 176.021 21.8977 176.021 21.9244C176.021 21.9268 176.021 21.9294 176.021 21.932C176.021 21.9382 176.021 21.9444 176.02 21.9505L172.676 43.1558C172.6 43.6419 172.181 44 171.688 44H147.746C147.284 44 146.882 43.6835 146.774 43.2344C146.128 40.5563 145.482 37.8781 144.836 35.2C144.129 32.2667 143.402 29.3333 142.655 26.4C141.947 23.4667 141.24 20.5333 140.533 17.6C139.825 14.6667 139.098 11.7333 138.351 8.8C137.743 6.27815 137.135 3.7563 136.527 1.23444C136.375 0.605343 136.852 0 137.499 0H160.488C160.98 0 161.399 0.358086 161.474 0.844494C161.739 2.56279 161.99 4.29551 162.227 6.04267C162.541 8.03734 162.836 10.032 163.111 12.0267C163.425 14.0213 163.74 16.0356 164.054 18.0693C164.365 20.0445 164.658 22.0197 164.93 23.9949C164.935 24.0284 164.964 24.0533 164.997 24.0533C165.037 24.0533 165.076 24.0533 165.115 24.0533C165.155 24.0533 165.174 24.0533 165.174 24.0533C165.208 24.0533 165.237 24.0284 165.241 23.9949L168.416 0.864028C168.484 0.368928 168.907 0 169.407 0H185.413C185.91 0 186.331 0.365002 186.403 0.856889L189.748 23.995C189.753 24.0285 189.816 24.0533 189.816 24.0533C189.85 24.0533 189.878 24.0285 189.883 23.995C190.47 19.9862 191.056 15.9967 191.643 12.0267C192.227 8.31972 192.795 4.59589 193.345 0.855166Z" fill="#1C1917"/>
<path d="M217.848 44C217.296 44 216.848 43.5523 216.848 43V28.5147C216.848 27.9624 217.296 27.5147 217.848 27.5147H237.365C237.918 27.5147 238.366 27.9624 238.366 28.5147V43C238.366 43.5523 237.918 44 237.366 44H217.848Z" fill="#1C1917"/>
</g>
</svg>
