<svg width="577" height="108" viewBox="0 0 577 108" fill="none" xmlns="http://www.w3.org/2000/svg">
<path d="M127.026 0C128.131 0 129.026 0.89543 129.026 2V41.776C129.026 42.8806 128.131 43.776 127.026 43.776H94.616C94.551 43.776 94.4887 43.8019 94.4428 43.848C94.4305 43.8604 94.4165 43.8745 94.4009 43.8901C94.3819 43.9092 94.3858 43.92 94.3589 43.92C94.303 43.92 94.228 43.9653 94.228 44.0211C94.228 44.0342 94.228 44.0485 94.228 44.064C94.228 48.288 94.228 52.56 94.228 56.88C94.228 61.104 94.228 65.376 94.228 69.696C94.228 73.92 94.228 78.192 94.228 82.512C94.228 86.736 94.228 91.008 94.228 95.328C94.228 98.8853 94.228 102.443 94.228 106C94.228 107.105 93.3326 108 92.228 108H36.7985C35.6939 108 34.7985 107.105 34.7985 106C34.7985 99.5627 34.7985 93.1253 34.7985 86.688C34.7985 79.584 34.7985 72.48 34.7985 65.376C34.7985 58.272 34.7985 51.168 34.7985 44.064C34.7985 43.9353 34.6408 43.776 34.5121 43.776H2C0.895431 43.776 0 42.8806 0 41.776V2C0 0.895431 0.895431 0 2 0H127.026Z" fill="#F8FAFC"/>
<path d="M270.228 1.71328C270.371 0.729793 271.214 0 272.208 0H325.956C327.243 0 328.195 1.19919 327.904 2.45338C325.994 10.6596 324.084 18.8658 322.174 27.072C320.169 36 318.116 44.976 316.016 54C313.915 63.024 311.815 72.048 309.715 81.072C307.826 89.4833 305.937 97.9372 304.048 106.434C303.845 107.349 303.033 108 302.096 108H238.818C237.835 108 236.997 107.285 236.843 106.313L228.521 53.8728C228.519 53.8616 228.519 53.8503 228.518 53.839C228.514 53.7803 228.49 53.7419 228.446 53.7239C228.409 53.709 228.375 53.6438 228.375 53.604C228.375 53.5642 228.343 53.568 228.303 53.568C228.294 53.568 228.285 53.568 228.274 53.568C228.247 53.568 228.221 53.5787 228.202 53.5978C228.191 53.6089 228.177 53.623 228.16 53.6403C228.114 53.6862 228.089 53.7483 228.089 53.8131C228.089 53.8195 228.089 53.8262 228.089 53.8332C228.089 53.8484 228.088 53.8635 228.085 53.8785L219.904 106.308C219.752 107.282 218.913 108 217.928 108H159.068C158.142 108 157.338 107.365 157.123 106.464C155.527 99.7762 153.93 93.0881 152.334 86.4C150.616 79.2 148.849 72 147.035 64.8C145.317 57.6 143.599 50.4 141.88 43.2C140.162 36 138.396 28.8 136.582 21.6C135.059 15.2214 133.537 8.84287 132.014 2.4643C131.714 1.20728 132.667 0 133.96 0H190.719C191.704 0 192.543 0.717889 192.693 1.69204C193.359 6.03444 193.988 10.4144 194.579 14.832C195.343 19.728 196.059 24.624 196.727 29.52C197.491 34.416 198.255 39.36 199.018 44.352C199.775 49.2007 200.484 54.0494 201.147 58.8981C201.158 58.9794 201.228 59.04 201.31 59.04C201.405 59.04 201.501 59.04 201.596 59.04C201.692 59.04 201.739 59.04 201.739 59.04C201.821 59.04 201.891 58.9794 201.902 58.8981L209.667 1.73081C209.801 0.739375 210.648 0 211.649 0H251.272C252.267 0 253.111 0.731594 253.252 1.71667L261.435 58.8982C261.447 58.9796 261.598 59.04 261.598 59.04C261.681 59.04 261.75 58.9796 261.762 58.8983C263.187 49.058 264.613 39.2652 266.038 29.52C267.477 20.2937 268.874 11.0248 270.228 1.71328Z" fill="#F8FAFC"/>
<path d="M467.693 1.71328C467.836 0.729793 468.679 0 469.673 0H523.42C524.708 0 525.66 1.19919 525.368 2.45338C523.458 10.6596 521.548 18.8658 519.638 27.072C517.633 36 515.581 44.976 513.48 54C511.38 63.024 509.28 72.048 507.179 81.072C505.29 89.4833 503.402 97.9372 501.513 106.434C501.309 107.349 500.498 108 499.56 108H436.283C435.299 108 434.462 107.285 434.307 106.313L425.985 53.8728C425.984 53.8616 425.983 53.8503 425.982 53.839C425.978 53.7803 425.954 53.7419 425.91 53.7239C425.873 53.709 425.84 53.6438 425.84 53.604C425.84 53.5642 425.807 53.568 425.768 53.568C425.759 53.568 425.749 53.568 425.738 53.568C425.712 53.568 425.686 53.5787 425.667 53.5978C425.656 53.6088 425.642 53.623 425.625 53.6402C425.579 53.6862 425.553 53.7484 425.553 53.8132C425.553 53.8195 425.553 53.8262 425.553 53.8332C425.553 53.8484 425.552 53.8635 425.55 53.8785L417.368 106.308C417.216 107.282 416.378 108 415.392 108H356.533C355.607 108 354.802 107.365 354.587 106.464C352.991 99.7762 351.395 93.0881 349.798 86.4C348.08 79.2 346.314 72 344.5 64.8C342.781 57.6 341.063 50.4 339.345 43.2C337.626 36 335.86 28.8 334.046 21.6C332.524 15.2214 331.001 8.84287 329.479 2.4643C329.179 1.20728 330.132 0 331.424 0H388.183C389.169 0 390.008 0.717889 390.157 1.69204C390.823 6.03444 391.452 10.4144 392.044 14.832C392.807 19.728 393.523 24.624 394.192 29.52C394.955 34.416 395.719 39.36 396.483 44.352C397.239 49.2007 397.949 54.0494 398.612 58.8981C398.623 58.9794 398.692 59.04 398.774 59.04C398.87 59.04 398.965 59.04 399.06 59.04C399.156 59.04 399.204 59.04 399.204 59.04C399.286 59.04 399.355 58.9794 399.366 58.8981L407.131 1.73081C407.266 0.739374 408.112 0 409.113 0H448.736C449.732 0 450.575 0.731594 450.716 1.71667L458.899 58.8983C458.911 58.9796 459.063 59.04 459.063 59.04C459.145 59.04 459.215 58.9796 459.227 58.8983C460.652 49.058 462.077 39.2652 463.502 29.52C464.941 20.2937 466.338 11.0248 467.693 1.71328Z" fill="#F8FAFC"/>
<path d="M526.731 108C525.626 108 524.731 107.105 524.731 106V69.536C524.731 68.4314 525.626 67.536 526.731 67.536H575C576.105 67.536 577 68.4314 577 69.536V106C577 107.105 576.105 108 575 108H526.731Z" fill="#F8FAFC"/>
</svg>
