<svg width="235" height="44" viewBox="0 0 235 44" fill="none" xmlns="http://www.w3.org/2000/svg">
<g id="TWW.">
<path d="M51.5498 0C52.1021 0 52.5498 0.447715 52.5498 1V16.8347C52.5498 17.387 52.1021 17.8347 51.5498 17.8347H38.5351C38.5086 17.8347 38.4833 17.8452 38.4646 17.864C38.4596 17.8691 38.4539 17.8748 38.4475 17.8812C38.4398 17.8889 38.4414 17.8933 38.4304 17.8933C38.4076 17.8933 38.3771 17.9118 38.3771 17.9345C38.3771 17.9398 38.3771 17.9457 38.3771 17.952C38.3771 19.6729 38.3771 21.4133 38.3771 23.1733C38.3771 24.8942 38.3771 26.6347 38.3771 28.3947C38.3771 30.1156 38.3771 31.856 38.3771 33.616C38.3771 35.3369 38.3771 37.0773 38.3771 38.8373C38.3771 40.2249 38.3771 41.6124 38.3771 43C38.3771 43.5523 37.9294 44 37.3771 44H15.1727C14.6204 44 14.1727 43.5523 14.1727 43C14.1727 40.4391 14.1727 37.8782 14.1727 35.3173C14.1727 32.4231 14.1727 29.5289 14.1727 26.6347C14.1727 23.7404 14.1727 20.8462 14.1727 17.952C14.1727 17.8996 14.1085 17.8347 14.056 17.8347H0.999999C0.447714 17.8347 0 17.387 0 16.8347V1C0 0.447716 0.447715 0 1 0H51.5498Z" fill="#F8FAFC"/>
<path d="M110.035 0.856676C110.107 0.364923 110.528 0 111.025 0H132.521C133.165 0 133.641 0.599544 133.495 1.22662C132.735 4.49419 131.975 7.76176 131.215 11.0293C130.398 14.6667 129.562 18.3236 128.707 22C127.851 25.6764 126.996 29.3529 126.14 33.0293C125.382 36.4083 124.623 39.8041 123.865 43.2168C123.763 43.6744 123.357 44 122.888 44H97.424C96.9322 44 96.5134 43.6424 96.4364 43.1567L93.0718 21.9482C93.0711 21.9436 93.0708 21.939 93.0705 21.9344C93.069 21.9105 93.0592 21.8949 93.0412 21.8875C93.0262 21.8814 93.0124 21.8549 93.0124 21.8387C93.0124 21.8225 92.9993 21.824 92.9831 21.824C92.9795 21.824 92.9755 21.824 92.9712 21.824C92.9603 21.824 92.9498 21.8284 92.942 21.8361C92.9375 21.8407 92.9318 21.8464 92.9248 21.8534C92.9062 21.8722 92.8958 21.8975 92.8958 21.9238C92.8958 21.9265 92.8958 21.9292 92.8958 21.932C92.8958 21.9382 92.8953 21.9444 92.8943 21.9505L89.5866 43.1541C89.5107 43.641 89.0913 44 88.5986 44H64.9316C64.4687 44 64.0663 43.6823 63.9589 43.2321C63.3201 40.5547 62.6813 37.8774 62.0424 35.2C61.3426 32.2667 60.6232 29.3333 59.8845 26.4C59.1846 23.4667 58.4847 20.5333 57.7848 17.6C57.0849 14.6667 56.3656 11.7333 55.6268 8.8C55.0249 6.27736 54.423 3.75472 53.8211 1.23208C53.6712 0.603588 54.1477 0 54.7938 0H77.517C78.0098 0 78.4293 0.358966 78.5037 0.846107C78.7662 2.56387 79.0142 4.29606 79.248 6.04267C79.559 8.03734 79.8507 10.032 80.1228 12.0267C80.4339 14.0213 80.745 16.0356 81.056 18.0693C81.3641 20.0447 81.6531 22.0201 81.923 23.9955C81.9275 24.0286 81.9558 24.0533 81.9892 24.0533C82.0281 24.0533 82.067 24.0533 82.1059 24.0533C82.1447 24.0533 82.1642 24.0533 82.1642 24.0533C82.1976 24.0533 82.2258 24.0286 82.2303 23.9955L85.3711 0.865449C85.4384 0.369712 85.8617 0 86.362 0H102.177C102.675 0 103.096 0.365821 103.167 0.85838L106.477 23.9956C106.482 24.0287 106.544 24.0533 106.544 24.0533C106.577 24.0533 106.605 24.0287 106.61 23.9956C107.191 19.9866 107.771 15.9969 108.352 12.0267C108.93 8.32022 109.491 4.59689 110.035 0.856676Z" fill="#F8FAFC"/>
<path d="M190.458 0.856676C190.53 0.364923 190.951 0 191.448 0H212.945C213.588 0 214.064 0.599544 213.919 1.22662C213.158 4.49419 212.398 7.76176 211.638 11.0293C210.821 14.6667 209.985 18.3236 209.13 22C208.274 25.6764 207.419 29.3529 206.563 33.0293C205.805 36.4083 205.046 39.8041 204.288 43.2168C204.186 43.6744 203.78 44 203.312 44H177.847C177.355 44 176.937 43.6424 176.859 43.1567L173.495 21.9482C173.494 21.9436 173.494 21.939 173.494 21.9344C173.492 21.9105 173.482 21.8949 173.464 21.8875C173.449 21.8814 173.436 21.8549 173.436 21.8387C173.436 21.8225 173.422 21.824 173.406 21.824C173.403 21.824 173.399 21.824 173.394 21.824C173.383 21.824 173.373 21.8284 173.365 21.8361C173.361 21.8406 173.355 21.8464 173.348 21.8534C173.329 21.8721 173.319 21.8975 173.319 21.9239C173.319 21.9265 173.319 21.9292 173.319 21.932C173.319 21.9382 173.318 21.9444 173.317 21.9505L170.01 43.1541C169.934 43.641 169.514 44 169.022 44H145.355C144.892 44 144.489 43.6823 144.382 43.2321C143.743 40.5547 143.104 37.8774 142.466 35.2C141.766 32.2667 141.046 29.3333 140.308 26.4C139.608 23.4667 138.908 20.5333 138.208 17.6C137.508 14.6667 136.789 11.7333 136.05 8.8C135.448 6.27736 134.846 3.75472 134.244 1.23208C134.094 0.603589 134.571 0 135.217 0H157.94C158.433 0 158.852 0.358966 158.927 0.846107C159.189 2.56387 159.437 4.29606 159.671 6.04267C159.982 8.03734 160.274 10.032 160.546 12.0267C160.857 14.0213 161.168 16.0356 161.479 18.0693C161.787 20.0447 162.076 22.0201 162.346 23.9956C162.351 24.0287 162.379 24.0533 162.412 24.0533C162.451 24.0533 162.49 24.0533 162.529 24.0533C162.568 24.0533 162.587 24.0533 162.587 24.0533C162.621 24.0533 162.649 24.0286 162.653 23.9955L165.794 0.865449C165.862 0.369712 166.285 0 166.785 0H182.6C183.098 0 183.52 0.365821 183.59 0.858381L186.9 23.9956C186.905 24.0287 186.967 24.0533 186.967 24.0533C187 24.0533 187.029 24.0287 187.033 23.9956C187.614 19.9866 188.194 15.9969 188.775 12.0267C189.353 8.32022 189.914 4.59689 190.458 0.856676Z" fill="#F8FAFC"/>
<path d="M214.712 44C214.16 44 213.712 43.5523 213.712 43V28.5147C213.712 27.9624 214.16 27.5147 214.712 27.5147H234C234.552 27.5147 235 27.9624 235 28.5147V43C235 43.5523 234.552 44 234 44H214.712Z" fill="#F8FAFC"/>
</g>
</svg>
